<?xml version="1.0" encoding="UTF-8" standalone="no"?>
<!DOCTYPE svg PUBLIC "-//W3C//DTD SVG 1.1//EN" "http://www.w3.org/Graphics/SVG/1.1/DTD/svg11.dtd">
<svg width="100%" height="100%" viewBox="0 0 333 149" version="1.1" xmlns="http://www.w3.org/2000/svg" xmlns:xlink="http://www.w3.org/1999/xlink" xml:space="preserve" xmlns:serif="http://www.serif.com/" style="fill-rule:evenodd;clip-rule:evenodd;stroke-linejoin:round;stroke-miterlimit:1.41421;">
    <g id="Keycloak">
        <g id="path3377" transform="matrix(1.25,0,0,-1.25,310.764,37.3362)">
            <path d="M0,0L-127.849,0C-128.242,0 -128.604,0.209 -128.8,0.549L-145.321,29.172C-145.517,29.512 -145.879,29.721 -146.272,29.721L-213.659,29.721C-214.052,29.721 -214.414,29.512 -214.61,29.172L-248.295,-29.182C-248.491,-29.522 -248.491,-29.94 -248.295,-30.28L-214.61,-88.634C-214.414,-88.974 -214.052,-89.183 -213.659,-89.183L-146.271,-89.183C-145.879,-89.183 -145.517,-88.974 -145.321,-88.634L-128.791,-60.006C-128.594,-59.666 -128.232,-59.457 -127.84,-59.457L0,-59.457C0.392,-59.457 0.755,-59.248 0.951,-58.908L17.472,-30.284C17.668,-29.945 17.668,-29.527 17.472,-29.187L0.951,-0.549C0.755,-0.209 0.392,0 0,0" style="fill:rgb(77,77,77);fill-rule:nonzero;"/>
        </g>
        <g id="path3395" transform="matrix(1.25,0,0,-1.25,-465.878,710.094)">
            <clipPath id="_clip1">
                <path d="M390.582,538.209L390.502,538.209C390.112,538.209 389.742,537.998 389.551,537.658L373.022,509.028C372.822,508.689 372.822,508.269 373.022,507.928L389.551,479.299C389.742,478.958 390.112,478.759 390.502,478.759L492.202,478.759C492.602,478.759 492.962,478.958 493.162,479.299L503.962,498.019C504.162,498.359 504.522,498.569 504.912,498.569L515.082,498.569C515.482,498.569 515.842,498.359 516.032,498.019L520.492,490.308C520.912,489.578 521.972,489.578 522.392,490.308L526.842,498.019C527.042,498.359 527.402,498.569 527.792,498.569L537.962,498.569C538.352,498.569 538.722,498.359 538.912,498.019L543.372,490.308C543.792,489.578 544.852,489.578 545.272,490.308L549.732,498.019C549.922,498.359 550.292,498.569 550.682,498.569L553.732,498.569C554.132,498.569 554.492,498.359 554.692,498.019L559.142,490.308C559.561,489.578 560.622,489.578 561.042,490.308L565.492,498.019C565.692,498.359 566.052,498.569 566.442,498.569L582.672,498.569C583.062,498.569 583.432,498.359 583.622,498.019L588.072,490.308C588.492,489.578 589.552,489.578 589.972,490.308L594.432,498.019C594.622,498.359 594.992,498.569 595.381,498.569L598.432,498.569C598.832,498.569 599.192,498.359 599.382,498.019L599.482,497.839L603.842,490.308C604.262,489.578 605.322,489.578 605.742,490.308L610.202,498.019C610.402,498.359 610.762,498.569 611.152,498.569L621.322,498.569C621.712,498.569 622.082,498.359 622.272,498.019L626.722,490.318C627.142,489.588 628.202,489.588 628.622,490.318L638.782,507.928C638.941,508.189 638.972,508.509 638.882,508.789C638.862,508.869 638.822,508.948 638.782,509.028L622.262,537.658C622.072,537.998 621.702,538.209 621.312,538.209L390.582,538.209Z"/>
            </clipPath>
            <g clip-path="url(#_clip1)">
                <path d="M390.582,538.209L390.502,538.209C390.112,538.209 389.742,537.998 389.551,537.658L373.022,509.028C372.822,508.689 372.822,508.269 373.022,507.928L389.551,479.299C389.742,478.958 390.112,478.759 390.502,478.759L492.202,478.759C492.602,478.759 492.962,478.958 493.162,479.299L503.962,498.019C504.162,498.359 504.522,498.569 504.912,498.569L515.082,498.569C515.482,498.569 515.842,498.359 516.032,498.019L520.492,490.308C520.912,489.578 521.972,489.578 522.392,490.308L526.842,498.019C527.042,498.359 527.402,498.569 527.792,498.569L537.962,498.569C538.352,498.569 538.722,498.359 538.912,498.019L543.372,490.308C543.792,489.578 544.852,489.578 545.272,490.308L549.732,498.019C549.922,498.359 550.292,498.569 550.682,498.569L553.732,498.569C554.132,498.569 554.492,498.359 554.692,498.019L559.142,490.308C559.561,489.578 560.622,489.578 561.042,490.308L565.492,498.019C565.692,498.359 566.052,498.569 566.442,498.569L582.672,498.569C583.062,498.569 583.432,498.359 583.622,498.019L588.072,490.308C588.492,489.578 589.552,489.578 589.972,490.308L594.432,498.019C594.622,498.359 594.992,498.569 595.381,498.569L598.432,498.569C598.832,498.569 599.192,498.359 599.382,498.019L599.482,497.839L603.842,490.308C604.262,489.578 605.322,489.578 605.742,490.308L610.202,498.019C610.402,498.359 610.762,498.569 611.152,498.569L621.322,498.569C621.712,498.569 622.082,498.359 622.272,498.019L626.722,490.318C627.142,489.588 628.202,489.588 628.622,490.318L638.782,507.928C638.941,508.189 638.972,508.509 638.882,508.789C638.862,508.869 638.822,508.948 638.782,509.028L622.262,537.658C622.072,537.998 621.702,538.209 621.312,538.209L390.582,538.209Z" style="fill:url(#_Linear2);fill-rule:nonzero;"/>
            </g>
        </g>
        <g id="path4281" transform="matrix(1.25,0,0,-1.25,-465.877,229.161)">
            <clipPath id="_clip3">
                <path d="M390.582,153.454L390.502,153.454C390.112,153.454 389.742,153.244 389.551,152.904L373.022,124.274C372.822,123.935 372.822,123.514 373.022,123.174L389.551,94.544C389.742,94.204 390.112,94.004 390.502,94.004L492.202,94.004C492.602,94.004 492.962,94.204 493.162,94.544L503.962,113.264C504.162,113.604 504.522,113.814 504.912,113.814L515.082,113.814C515.482,113.814 515.842,113.604 516.032,113.264L520.492,105.554C520.912,104.824 521.972,104.824 522.392,105.554L526.842,113.264C527.042,113.604 527.402,113.814 527.792,113.814L537.962,113.814C538.352,113.814 538.722,113.604 538.912,113.264L543.372,105.554C543.792,104.824 544.852,104.824 545.272,105.554L549.732,113.264C549.922,113.604 550.292,113.814 550.682,113.814L553.732,113.814C554.132,113.814 554.492,113.604 554.692,113.264L559.142,105.554C559.561,104.824 560.622,104.824 561.042,105.554L565.492,113.264C565.692,113.604 566.052,113.814 566.442,113.814L582.672,113.814C583.062,113.814 583.432,113.604 583.622,113.264L588.072,105.554C588.492,104.824 589.552,104.824 589.972,105.554L594.432,113.264C594.622,113.604 594.992,113.814 595.381,113.814L598.432,113.814C598.832,113.814 599.192,113.604 599.382,113.264L599.482,113.084L603.842,105.554C604.262,104.824 605.322,104.824 605.742,105.554L610.202,113.264C610.402,113.604 610.762,113.814 611.152,113.814L621.322,113.814C621.712,113.814 622.082,113.604 622.272,113.264L626.722,105.564C627.142,104.834 628.202,104.834 628.622,105.564L638.782,123.174C638.941,123.434 638.972,123.755 638.882,124.034C638.862,124.115 638.822,124.194 638.782,124.274L622.262,152.904C622.072,153.244 621.702,153.454 621.312,153.454L390.582,153.454Z"/>
            </clipPath>
            <g clip-path="url(#_clip3)">
                <path d="M390.582,153.454L390.502,153.454C390.112,153.454 389.742,153.244 389.551,152.904L373.022,124.274C372.822,123.935 372.822,123.514 373.022,123.174L389.551,94.544C389.742,94.204 390.112,94.004 390.502,94.004L492.202,94.004C492.602,94.004 492.962,94.204 493.162,94.544L503.962,113.264C504.162,113.604 504.522,113.814 504.912,113.814L515.082,113.814C515.482,113.814 515.842,113.604 516.032,113.264L520.492,105.554C520.912,104.824 521.972,104.824 522.392,105.554L526.842,113.264C527.042,113.604 527.402,113.814 527.792,113.814L537.962,113.814C538.352,113.814 538.722,113.604 538.912,113.264L543.372,105.554C543.792,104.824 544.852,104.824 545.272,105.554L549.732,113.264C549.922,113.604 550.292,113.814 550.682,113.814L553.732,113.814C554.132,113.814 554.492,113.604 554.692,113.264L559.142,105.554C559.561,104.824 560.622,104.824 561.042,105.554L565.492,113.264C565.692,113.604 566.052,113.814 566.442,113.814L582.672,113.814C583.062,113.814 583.432,113.604 583.622,113.264L588.072,105.554C588.492,104.824 589.552,104.824 589.972,105.554L594.432,113.264C594.622,113.604 594.992,113.814 595.381,113.814L598.432,113.814C598.832,113.814 599.192,113.604 599.382,113.264L599.482,113.084L603.842,105.554C604.262,104.824 605.322,104.824 605.742,105.554L610.202,113.264C610.402,113.604 610.762,113.814 611.152,113.814L621.322,113.814C621.712,113.814 622.082,113.604 622.272,113.264L626.722,105.564C627.142,104.834 628.202,104.834 628.622,105.564L638.782,123.174C638.941,123.434 638.972,123.755 638.882,124.034C638.862,124.115 638.822,124.194 638.782,124.274L622.262,152.904C622.072,153.244 621.702,153.454 621.312,153.454L390.582,153.454Z" style="fill:url(#_Linear4);fill-rule:nonzero;"/>
            </g>
        </g>
        <g transform="matrix(1.25,0,0,-1.25,-465.877,229.161)">
            <g id="path4859" transform="matrix(1,0,0,1,638.782,123.174)">
                <path d="M0,0L-3.86,-6.68L-4.83,-4.39L0.1,0.86C0.19,0.58 0.16,0.26 0,0" style="fill:rgb(97,97,97);fill-rule:nonzero;"/>
            </g>
            <g id="path4863" transform="matrix(1,0,0,1,624.242,149.484)">
                <path d="M0,0L-7.08,3.42L-5.9,3.97L-2.93,3.97C-2.54,3.97 -2.17,3.76 -1.98,3.42L0,0Z" style="fill:rgb(109,109,109);fill-rule:nonzero;"/>
            </g>
            <g id="path4867" transform="matrix(1,0,0,1,618.342,153.454)">
                <path d="M0,0L-1.18,-0.55L-0.99,0L0,0Z" style="fill:rgb(118,118,118);fill-rule:nonzero;"/>
            </g>
            <g id="path4871" transform="matrix(1,0,0,1,617.352,153.454)">
                <path d="M0,0L-0.19,-0.55L-0.47,0L0,0Z" style="fill:rgb(124,124,124);fill-rule:nonzero;"/>
            </g>
            <g id="path4875" transform="matrix(1,0,0,1,638.882,124.034)">
                <path d="M0,0L-4.93,-5.25L-21.72,28.87L-14.64,25.45L-14.64,25.44L-0.1,0.24C-0.06,0.16 -0.02,0.08 0,0" style="fill:rgb(105,105,105);fill-rule:nonzero;"/>
            </g>
            <g id="path4879" transform="matrix(1,0,0,1,634.922,116.494)">
                <path d="M0,0L-1.35,-2.34L-0.97,2.29L0,0Z" style="fill:rgb(93,93,93);fill-rule:nonzero;"/>
            </g>
            <g id="path4883" transform="matrix(1,0,0,1,633.952,118.784)">
                <path d="M0,0L-0.38,-4.63L-5.33,-13.22C-5.75,-13.95 -6.81,-13.95 -7.23,-13.22L-8.97,-10.21L0,0Z" style="fill:rgb(95,95,95);fill-rule:nonzero;"/>
            </g>
            <g id="path4887" transform="matrix(1,0,0,1,617.162,152.904)">
                <path d="M0,0L-19.769,-19.228L16.79,-34.12L0,0Z" style="fill:rgb(109,109,109);fill-rule:nonzero;"/>
            </g>
            <g id="path4891" transform="matrix(1,0,0,1,633.952,118.784)">
                <path d="M0,0L-8.97,-10.21L-11.68,-5.52C-11.87,-5.18 -12.24,-4.97 -12.63,-4.97L-22.8,-4.97C-23.19,-4.97 -23.55,-5.18 -23.75,-5.52L-28.21,-13.23C-28.63,-13.96 -29.69,-13.96 -30.11,-13.23L-34.47,-5.7L-36.559,14.892L0,0Z" style="fill:rgb(102,102,102);fill-rule:nonzero;"/>
            </g>
            <g id="path4895" transform="matrix(1,0,0,1,599.482,113.084)">
                <path d="M0,0L-0.1,0.18C-0.29,0.52 -0.65,0.73 -1.05,0.73L-4.1,0.73C-4.49,0.73 -4.86,0.52 -5.05,0.18L-9.51,-7.53C-9.93,-8.26 -10.99,-8.26 -11.41,-7.53L-15.86,0.18C-16.05,0.52 -16.42,0.73 -16.81,0.73L-16.91,0.73L-22.94,10.03L-2.089,20.592L0,0Z" style="fill:rgb(107,107,107);fill-rule:nonzero;"/>
            </g>
            <g id="path4899" transform="matrix(1,0,0,1,617.162,152.904)">
                <path d="M0,0L-30.33,-2.98L-29.12,0.55L-0.28,0.55L0,0Z" style="fill:rgb(121,121,121);fill-rule:nonzero;"/>
            </g>
            <g id="path4903" transform="matrix(1,0,0,1,586.832,149.924)">
                <path d="M0,0L10.561,-16.248L30.33,2.98L0,0Z" style="fill:rgb(115,115,115);fill-rule:nonzero;"/>
            </g>
            <g id="path4907" transform="matrix(1,0,0,1,588.042,153.454)">
                <path d="M0,0L-1.21,-3.53L-9.85,0L0,0Z" style="fill:rgb(124,124,124);fill-rule:nonzero;"/>
            </g>
            <g id="path4911" transform="matrix(1,0,0,1,582.572,113.814)">
                <path d="M0,0L-10.34,0L-6.03,9.3L0,0Z" style="fill:rgb(105,105,105);fill-rule:nonzero;"/>
            </g>
            <g id="path4915" transform="matrix(1,0,0,1,586.832,149.924)">
                <path d="M0,0L-10.29,-26.81L10.561,-16.248L0,0Z" style="fill:rgb(115,115,115);fill-rule:nonzero;"/>
            </g>
            <g id="path4919" transform="matrix(1,0,0,1,586.832,149.924)">
                <path d="M0,0L-10.29,-26.81L-13.1,3.53L-8.64,3.53L0,0Z" style="fill:rgb(119,119,119);fill-rule:nonzero;"/>
            </g>
            <g id="path4923" transform="matrix(1,0,0,1,576.542,123.114)">
                <path d="M0,0L-38.99,1.9L-5.22,30.34L-2.81,30.34L0,0Z" style="fill:rgb(120,120,120);fill-rule:nonzero;"/>
            </g>
            <g id="path4927" transform="matrix(1,0,0,1,576.542,123.114)">
                <path d="M0,0L-4.31,-9.3L-10.1,-9.3C-10.49,-9.3 -10.85,-9.51 -11.05,-9.85L-15.5,-17.56C-15.92,-18.29 -16.98,-18.29 -17.4,-17.56L-21.85,-9.85C-22.05,-9.51 -22.41,-9.3 -22.81,-9.3L-25.86,-9.3C-26.25,-9.3 -26.62,-9.51 -26.81,-9.85L-28.81,-13.31L-38.99,1.9L0,0Z" style="fill:rgb(113,113,113);fill-rule:nonzero;"/>
            </g>
            <g id="path4931" transform="matrix(1,0,0,1,571.322,153.454)">
                <path d="M0,0L-33.77,-28.44L-40.15,0L0,0Z" style="fill:rgb(127,127,127);fill-rule:nonzero;"/>
            </g>
            <g id="path4935" transform="matrix(1,0,0,1,547.732,109.804)">
                <path d="M0,0L-2.46,-4.25C-2.88,-4.98 -3.94,-4.98 -4.36,-4.25L-8.82,3.46C-9.01,3.8 -9.38,4.01 -9.77,4.01L-13.56,4.01L-10.18,15.21L0,0Z" style="fill:rgb(114,114,114);fill-rule:nonzero;"/>
            </g>
            <g id="path4939" transform="matrix(1,0,0,1,537.552,125.014)">
                <path d="M0,0L-24.64,0.81L-10.38,28.44L-6.38,28.44L0,0Z" style="fill:rgb(128,128,128);fill-rule:nonzero;"/>
            </g>
            <g id="path4943" transform="matrix(1,0,0,1,537.552,125.014)">
                <path d="M0,0L-3.38,-11.2L-9.76,-11.2C-10.15,-11.2 -10.51,-11.41 -10.71,-11.75L-15.16,-19.46C-15.58,-20.19 -16.64,-20.19 -17.06,-19.46L-17.84,-18.12L-24.64,0.81L0,0Z" style="fill:rgb(121,121,121);fill-rule:nonzero;"/>
            </g>
            <g id="path4947" transform="matrix(1,0,0,1,519.712,106.894)">
                <path d="M0,0L-3.68,6.37C-3.87,6.71 -4.23,6.92 -4.63,6.92L-14.8,6.92C-15.19,6.92 -15.55,6.71 -15.75,6.37L-17.66,3.06L-18.45,3.77L-6.8,18.93L0,0Z" style="fill:rgb(122,122,122);fill-rule:nonzero;"/>
            </g>
            <g id="path4951" transform="matrix(1,0,0,1,527.172,153.454)">
                <path d="M0,0L-14.26,-27.63L-20.43,0L0,0Z" style="fill:rgb(134,134,134);fill-rule:nonzero;"/>
            </g>
            <g id="path4955" transform="matrix(1,0,0,1,502.052,109.954)">
                <path d="M0,0L-8.89,-15.41C-9.09,-15.75 -9.45,-15.95 -9.85,-15.95L-21.36,-15.95L-0.79,0.71L0,0Z" style="fill:rgb(121,121,121);fill-rule:nonzero;"/>
            </g>
            <g id="path4959" transform="matrix(1,0,0,1,512.912,125.824)">
                <path d="M0,0L-33.58,0.54L-13.48,27.63L-6.17,27.63L0,0Z" style="fill:rgb(135,135,135);fill-rule:nonzero;"/>
            </g>
            <g id="path4963" transform="matrix(1,0,0,1,479.332,126.364)">
                <path d="M0,0L21.931,-15.705L33.58,-0.54L0,0Z" style="fill:rgb(130,130,130);fill-rule:nonzero;"/>
            </g>
            <g id="path4967" transform="matrix(1,0,0,1,499.432,153.454)">
                <path d="M0,0L-20.1,-27.09L-33.81,0L0,0Z" style="fill:rgb(144,144,144);fill-rule:nonzero;"/>
            </g>
            <g id="path4971" transform="matrix(1,0,0,1,501.262,110.664)">
                <path d="M0,0L-20.57,-16.66L-22.7,-16.66L-21.93,15.7L0,0Z" style="fill:rgb(129,129,129);fill-rule:nonzero;"/>
            </g>
            <g id="path4975" transform="matrix(1,0,0,1,479.332,126.364)">
                <path d="M0,0L-43.87,17.06L-36.03,27.09L-13.71,27.09L0,0Z" style="fill:rgb(147,147,147);fill-rule:nonzero;"/>
            </g>
            <g id="path4979" transform="matrix(1,0,0,1,479.332,126.364)">
                <path d="M0,0L-0.77,-32.36L-5.49,-32.36L-46.85,-16.79L0,0Z" style="fill:rgb(133,133,133);fill-rule:nonzero;"/>
            </g>
            <g id="path4983" transform="matrix(1,0,0,1,435.462,143.424)">
                <path d="M0,0L-2.98,-33.85L43.87,-17.06L0,0Z" style="fill:rgb(143,143,143);fill-rule:nonzero;"/>
            </g>
            <g id="path4987" transform="matrix(1,0,0,1,473.842,94.0041)">
                <path d="M0,0L-25.68,0L-41.36,15.57L0,0Z" style="fill:rgb(128,128,128);fill-rule:nonzero;"/>
            </g>
            <g id="path4991" transform="matrix(1,0,0,1,448.162,94.0041)">
                <path d="M0,0L-13.27,0L-15.68,15.57L0,0Z" style="fill:rgb(126,126,126);fill-rule:nonzero;"/>
            </g>
            <g id="path4995" transform="matrix(1,0,0,1,434.892,94.0041)">
                <path d="M0,0L-16.82,0L-20.82,6.09L-2.41,15.57L0,0Z" style="fill:rgb(134,134,134);fill-rule:nonzero;"/>
            </g>
            <g id="path4999" transform="matrix(1,0,0,1,443.302,153.454)">
                <path d="M0,0L-7.84,-10.03L-14.59,0L0,0Z" style="fill:rgb(155,155,155);fill-rule:nonzero;"/>
            </g>
            <g id="path5003" transform="matrix(1,0,0,1,404.863,123.928)">
                <path d="M0,0L27.619,-14.354L30.599,19.496L0,0Z" style="fill:rgb(148,148,148);fill-rule:nonzero;"/>
            </g>
            <g id="path5007" transform="matrix(1,0,0,1,418.072,94.0041)">
                <path d="M0,0L-6.03,0L-4,6.09L0,0Z" style="fill:rgb(127,127,127);fill-rule:nonzero;"/>
            </g>
            <g id="path5011" transform="matrix(1,0,0,1,435.462,143.424)">
                <path d="M0,0L-30.599,-19.496L-12.03,10.03L-6.75,10.03L0,0Z" style="fill:rgb(153,153,153);fill-rule:nonzero;"/>
            </g>
            <g id="path5015" transform="matrix(1,0,0,1,404.863,123.928)">
                <path d="M0,0L9.209,-23.834L27.619,-14.354L0,0Z" style="fill:rgb(143,143,143);fill-rule:nonzero;"/>
            </g>
            <g id="path5019" transform="matrix(1,0,0,1,423.432,153.454)">
                <path d="M0,0L-18.569,-29.526L-32.85,0L0,0Z" style="fill:rgb(158,158,158);fill-rule:nonzero;"/>
            </g>
            <g id="path5023" transform="matrix(1,0,0,1,414.072,100.094)">
                <path d="M0,0L-2.03,-6.09L-10.12,-6.09L0,0Z" style="fill:rgb(133,133,133);fill-rule:nonzero;"/>
            </g>
            <g id="path5027" transform="matrix(1,0,0,1,414.072,100.094)">
                <path d="M0,0L-10.12,-6.09L-23.57,-6.09C-23.96,-6.09 -24.33,-5.89 -24.52,-5.55L-27.31,-0.72L0,0Z" style="fill:rgb(142,142,142);fill-rule:nonzero;"/>
            </g>
            <g id="path5031" transform="matrix(1,0,0,1,414.072,100.094)">
                <path d="M0,0L-27.31,-0.72L-33.22,9.52L-9.209,23.834L0,0Z" style="fill:rgb(146,146,146);fill-rule:nonzero;"/>
            </g>
            <g id="path5035" transform="matrix(1,0,0,1,404.863,123.928)">
                <path d="M0,0L-24.011,-14.314L-31.841,-0.754C-32.041,-0.414 -32.041,0.006 -31.841,0.346L-29.951,3.616L0,0Z" style="fill:rgb(152,152,152);fill-rule:nonzero;"/>
            </g>
            <g id="path5039" transform="matrix(1,0,0,1,404.863,123.928)">
                <path d="M0,0L-29.951,3.616L-15.311,28.976C-15.121,29.316 -14.751,29.526 -14.361,29.526L-14.281,29.526L0,0Z" style="fill:rgb(157,157,157);fill-rule:nonzero;"/>
            </g>
        </g>
    </g>
    <g id="React" transform="matrix(0.28172,0,0,0.28172,11.6477,2.37969)">
        <path d="M412.136,180.122C406.938,178.39 401.74,176.753 396.542,175.213C397.408,171.651 398.178,168.09 398.949,164.528C410.789,107.156 402.991,61.047 376.712,45.837C351.395,31.302 310.099,46.415 268.321,82.802C264.182,86.363 260.139,90.118 256.289,93.872C253.69,91.369 250.994,88.866 248.299,86.46C204.5,47.57 160.605,31.206 134.325,46.511C109.105,61.143 101.596,104.557 112.185,158.848C113.244,164.239 114.399,169.534 115.747,174.924C109.586,176.657 103.522,178.582 97.842,180.604C46.438,198.412 9.57,226.52 9.57,255.591C9.57,285.625 48.845,315.755 102.27,334.045C106.602,335.489 110.934,336.932 115.362,338.184C113.918,343.96 112.666,349.639 111.511,355.511C101.404,408.936 109.297,451.291 134.518,465.827C160.508,480.844 204.211,465.442 246.759,428.188C250.128,425.204 253.497,422.124 256.866,418.851C261.102,422.99 265.53,426.937 269.958,430.788C311.158,466.212 351.877,480.555 377.001,466.019C402.991,451.002 411.463,405.471 400.489,350.024C399.622,345.789 398.66,341.457 397.601,337.029C400.681,336.162 403.665,335.2 406.649,334.237C462.192,315.851 502.43,286.106 502.43,255.591C502.43,226.424 464.503,198.123 412.136,180.122ZM281.894,98.396C317.704,67.207 351.106,54.982 366.316,63.742C382.584,73.079 388.841,110.814 378.637,160.389C377.963,163.662 377.29,166.838 376.423,170.015C355.053,165.202 333.394,161.736 311.639,159.811C299.125,141.906 285.456,124.772 270.632,108.696C274.386,105.134 278.044,101.765 281.894,98.396ZM156.754,280.427C161.182,288.898 165.707,297.273 170.52,305.551C175.429,313.926 180.435,322.301 185.729,330.483C170.712,328.846 155.792,326.44 141.064,323.263C145.299,309.402 150.594,295.059 156.754,280.427ZM156.754,231.719C150.69,217.376 145.588,203.321 141.352,189.748C155.214,186.668 169.942,184.165 185.248,182.24C180.146,190.23 175.14,198.412 170.423,206.69C165.707,214.873 161.086,223.247 156.754,231.719ZM167.728,256.073C174.081,242.789 181.012,229.793 188.328,216.99C195.644,204.188 203.537,191.77 211.816,179.545C226.255,178.486 240.983,177.908 256,177.908C271.017,177.908 285.841,178.486 300.184,179.545C308.366,191.674 316.164,204.091 323.576,216.798C330.988,229.505 337.919,242.5 344.464,255.688C338.015,268.972 331.084,282.063 323.672,294.962C316.356,307.765 308.559,320.183 300.377,332.504C286.034,333.563 271.113,334.045 256,334.045C240.887,334.045 226.255,333.563 212.105,332.697C203.73,320.472 195.836,307.958 188.424,295.155C181.012,282.352 174.178,269.357 167.728,256.073ZM341.577,305.359C346.486,296.888 351.106,288.32 355.631,279.657C361.792,293.615 367.182,307.765 371.899,322.301C356.978,325.67 341.865,328.269 326.656,330.002C331.854,321.916 336.764,313.637 341.577,305.359ZM355.438,231.719C350.914,223.247 346.293,214.776 341.48,206.498C336.764,198.316 331.854,190.23 326.752,182.24C342.25,184.165 357.075,186.764 370.936,189.941C366.508,204.188 361.31,218.049 355.438,231.719ZM256.193,123.424C266.3,134.398 275.83,145.949 284.686,157.886C265.626,157.02 246.47,157.02 227.41,157.886C236.844,145.468 246.566,133.917 256.193,123.424ZM144.529,64.416C160.701,54.982 196.607,68.459 234.437,101.958C236.844,104.076 239.25,106.386 241.753,108.696C226.833,124.772 213.067,141.906 200.457,159.811C178.702,161.736 157.139,165.105 135.769,169.822C134.518,164.913 133.459,159.907 132.4,154.902C123.351,108.311 129.32,73.176 144.529,64.416ZM120.945,318.161C116.902,317.006 112.955,315.755 109.009,314.407C88.505,307.958 65.209,297.754 48.364,284.374C38.641,277.635 32.095,267.239 30.266,255.591C30.266,237.976 60.685,215.45 104.58,200.145C110.067,198.219 115.651,196.487 121.234,194.85C127.78,215.739 135.673,236.243 144.818,256.073C135.577,276.191 127.587,296.984 120.945,318.161ZM233.186,412.498C217.303,427.033 198.917,438.585 178.894,446.478C168.209,451.58 155.888,452.061 144.914,447.73C129.608,438.874 123.255,404.893 131.919,359.169C132.978,353.778 134.133,348.388 135.48,343.093C157.043,347.714 178.798,350.89 200.842,352.527C213.549,370.528 227.507,387.759 242.427,403.931C239.347,406.915 236.266,409.803 233.186,412.498ZM256.77,389.106C246.951,378.517 237.133,366.774 227.603,354.163C236.844,354.548 246.374,354.741 256,354.741C265.915,354.741 275.637,354.548 285.264,354.067C276.407,366.292 266.878,377.94 256.77,389.106ZM382.584,417.985C381.718,429.729 375.942,440.703 366.701,448.115C351.395,456.971 318.763,445.419 283.531,415.193C279.488,411.728 275.445,407.974 271.306,404.123C286.034,387.855 299.607,370.624 311.928,352.527C333.972,350.698 355.92,347.329 377.578,342.419C378.541,346.366 379.407,350.313 380.177,354.163C384.894,374.956 385.664,396.615 382.584,417.985ZM400.104,314.504C397.408,315.37 394.713,316.236 391.921,317.006C385.183,296.021 376.905,275.518 367.375,255.591C376.616,235.954 384.413,215.739 390.959,195.043C395.964,196.487 400.777,198.027 405.398,199.567C450.256,214.969 481.734,237.879 481.734,255.399C481.734,274.266 448.138,298.62 400.104,314.504ZM256,211.889C280.354,211.889 300.088,231.622 300.088,255.976C300.088,280.331 280.354,300.064 256,300.064C231.646,300.064 211.912,280.331 211.912,255.976C211.912,231.622 231.646,211.889 256,211.889" style="fill:white;fill-rule:nonzero;"/>
    </g>
    <defs>
        <linearGradient id="_Linear2" x1="0" y1="0" x2="1" y2="0" gradientUnits="userSpaceOnUse" gradientTransform="matrix(266.06,0,0,266.06,372.872,508.484)"><stop offset="0" style="stop-color:rgb(157,159,162);stop-opacity:1"/><stop offset="1" style="stop-color:rgb(109,110,113);stop-opacity:1"/></linearGradient>
        <linearGradient id="_Linear4" x1="0" y1="0" x2="1" y2="0" gradientUnits="userSpaceOnUse" gradientTransform="matrix(266.06,0,0,266.06,372.872,123.729)"><stop offset="0" style="stop-color:rgb(157,159,162);stop-opacity:1"/><stop offset="1" style="stop-color:rgb(109,110,113);stop-opacity:1"/></linearGradient>
    </defs>
</svg>
